<?xml version="1.0" encoding="utf-8"?>
<!-- Generator: Adobe Illustrator 22.1.0, SVG Export Plug-In . SVG Version: 6.00 Build 0)  -->
<svg version="1.1" id="Слой_1" xmlns="http://www.w3.org/2000/svg" xmlns:xlink="http://www.w3.org/1999/xlink" x="0px" y="0px"
	 viewBox="0 0 123 123" style="enable-background:new 0 0 123 123;" xml:space="preserve">
<style type="text/css">
	.st0{fill:#575656;}
	.st1{fill:#F9DE59;}
	.st2{fill:#F98365;}
	.st3{fill:#CDDA95;}
	.st4{fill:#E8A628;}
	.st5{opacity:0.42;fill:none;stroke:#000000;stroke-width:0.5;stroke-miterlimit:10;}
	.st6{opacity:0.5;fill:none;stroke:#000000;stroke-width:0.5;stroke-miterlimit:10;}
	.st7{opacity:0.51;fill:none;stroke:#000000;stroke-width:0.5;stroke-miterlimit:10;}
</style>
<path class="st0" d="M52,112.3V95.8c0-0.9,0.6-1.5,1.5-1.5s1.5,0.6,1.5,1.5v16.5h6V92.8c0-0.9,0.6-1.5,1.5-1.5s1.5,0.6,1.5,1.5v19.5
	h6V95.8c0-0.9,0.6-1.5,1.5-1.5s1.5,0.6,1.5,1.5v16.5h5.4c0.6-0.9,0.6-1.8,0.6-3.3V97.3c0-6.6-5.7-15.6-12.9-15.6h-7.5
	c-6.9,0-12.9,9.3-12.9,15.6V109c0,1.2,0.3,2.4,0.6,3.3H52L52,112.3z M109.3,68.4L109.3,68.4c0,0-3.9-1.2-7.2-1.2h-0.3
	c-3.3,0-8.7,0.9-8.7,0.9c-0.3,0-0.3,0-0.3-0.3c0-0.3,0-0.3,0.3-0.3s6-0.9,9.3-0.9s7.2,1.2,7.5,1.2s0.3,0.3,0.3,0.6
	C109.6,68.1,109.6,68.4,109.3,68.4z M108.4,70.9L108.4,70.9c0,0-4.2-1.2-7.8-1.2c-2.7,0-9,0.6-9.3,0.6c-0.3,0-0.3,0-0.3-0.3
	s0-0.3,0.3-0.3c0.3,0,6.6-0.6,9.3-0.6c3.9,0,7.8,1.2,7.8,1.2c0.3,0,0.3,0.3,0.3,0.6C108.7,70.6,108.7,70.9,108.4,70.9z M12.4,68.4
	c-0.3,0-0.3,0-0.3-0.3c0-0.3,0-0.3,0.3-0.6c2.4-0.6,7.2-1.5,9.9-1.5c2.4,0,10.5,0.6,10.8,0.6s0.3,0.3,0.3,0.3c0,0.3-0.3,0.3-0.3,0.3
	s-8.1-0.6-10.5-0.6C19.3,67.3,14.8,67.9,12.4,68.4L12.4,68.4z M13.6,72.9c0,0-0.3,0-0.3-0.3c0-0.3,0-0.3,0-0.6c0.3,0,4.2-2.4,8.7-3
	c3.9-0.6,12,0.3,12.6,0.3c0.3,0,0.3,0.3,0.3,0.3c0,0.3-0.3,0.3-0.3,0.3l0,0c0,0-8.4-0.9-12.3-0.3C17.8,70.6,13.6,72.9,13.6,72.9
	L13.6,72.9z"/>
<path class="st0" d="M31.6,59.8c0-13.2,13.8-25.5,30.9-25.5s30.9,12,30.9,25.5s-9.9,22.5-30.9,22.5S31.6,72.9,31.6,59.8z"/>
<path class="st0" d="M74.8,38.1c0,0,5.1-6.9,14.4-6.9c3.6,3.6,1.2,14.4,0,17.4L74.8,38.1z M50.2,38.1c0,0-5.1-6.9-14.4-6.9
	c-3.6,3.6-1.2,14.4,0,17.4L50.2,38.1z M49.3,97c0,0-6.9,0-8.4,0c-3.6,0-6.9-1.5-8.4-4.5c-1.8-3.3-3.3-6.9-7.8-9.9
	c-0.9-0.6-0.3-1.2,1.2-1.2c1.5,0.3,4.2,0.6,6.3,3.3c2.1,2.7,4.5,6,8.4,6s8.1,0,10.5-2.7L49.3,97z"/>
<path class="st1" d="M102.4,17.9"/>
<g id="XMLID_2_">
	<g>
		<path class="st2" d="M120.8,56c1.2,13.8-2.3,26.8-9.2,37.5c-3.4-1.8-6.8-4.1-11-5.1c5.3-7.7,8.4-17.1,8.4-27.1
			c0-13.9-6-26.5-15.5-35.3c-0.1-0.1-0.1-0.2,0-0.2c0.3-0.3,0.6-0.5,0.9-0.8c2.5-1.9,4.8-3.9,6.9-6.1c0.4-0.3,0.7-0.6,1.1-1
			c-0.4,0.3-0.7,0.6-1.1,1c0.3-0.3,0.7-0.7,1.1-1C112.6,27.7,119.4,41.1,120.8,56z"/>
	</g>
	<g>
	</g>
</g>
<path class="st1" d="M94.3,25C94.3,25,94.3,25,94.3,25c0.1-0.1,0.3-0.3,0.4-0.4C94.6,24.8,94.5,24.9,94.3,25z"/>
<path class="st1" d="M95.6,23.8c0.5-0.4,1-0.9,1.5-1.3C96.6,23,96.1,23.4,95.6,23.8z"/>
<path class="st1" d="M94.3,25c-0.3,0.3-0.6,0.5-0.9,0.8c0,0,0,0,0,0C93.7,25.5,94,25.3,94.3,25C94.3,25,94.3,25,94.3,25z"/>
<path class="st1" d="M94.3,25c-0.4,0.3-0.7,0.5-1.1,0.8c0,0,0.1,0.1,0.1,0.1c0,0,0.1-0.1,0.1-0.1c0,0,0,0,0,0
	C93.7,25.5,94,25.3,94.3,25z"/>
<path class="st1" d="M98.9,21c-0.6,0.5-1.2,1.1-1.8,1.6c-0.5,0.4-1,0.9-1.5,1.3c-0.3,0.3-0.6,0.5-0.9,0.8c-0.1,0.1-0.3,0.3-0.4,0.4
	c2.5-1.8,4.8-3.9,6.9-6.1c-0.4,0.3-0.8,0.7-1.2,1C99.7,20.3,99.3,20.6,98.9,21z"/>
<path class="st1" d="M98.9,21c0.4-0.3,0.8-0.7,1.2-1C99.7,20.3,99.3,20.6,98.9,21z"/>
<path class="st1" d="M94.7,24.6c0.3-0.3,0.6-0.5,0.9-0.8c0.5-0.4,1-0.9,1.5-1.3c0.6-0.5,1.2-1.1,1.8-1.6c0.4-0.3,0.8-0.7,1.2-1
	c0.4-0.3,0.8-0.7,1.2-1c0.4-0.3,0.7-0.7,1-1C92.6,8.7,79.9,2.6,65.9,1.5C48.2,0.1,32,6.5,20.2,17.5c2.3,2.9,6,5.3,8.6,8.3
	c8.5-7.7,19.8-12.5,32.2-12.5c12.3,0,23.5,4.7,32,12.3c0.1,0.1,0.1,0.1,0.2,0.2c0.4-0.3,0.8-0.5,1.1-0.8
	C94.5,24.9,94.6,24.8,94.7,24.6z"/>
<g id="XMLID_1_">
	<g>
		<path class="st3" d="M20,86.3c7.7,12.6,21.1,21.4,36.5,22.9c18.2,1.7,34.6-7,44.1-20.7c4.1,1,7.6,3.3,11,5.1
			c-10.7,16.7-29.4,27.8-50.6,27.8c-22,0-41.3-12-51.7-29.7C12.9,89.8,16.4,88,20,86.3z"/>
		<path class="st4" d="M13.3,66.6c0.8,7.1,3.1,13.8,6.7,19.6c-3.6,1.8-7.1,3.6-10.7,5.4C4,82.7,1,72.4,1,61.3
			c0-17.3,7.4-32.9,19.2-43.9c2.3,2.9,6,5.3,8.6,8.3C17.9,35.7,11.5,50.5,13.3,66.6z"/>
	</g>
	<g>
	</g>
</g>
<path class="st5" d="M28.7,25.9"/>
<path class="st6" d="M102.4,17.9"/>
<path class="st6" d="M93.2,25.9"/>
<path class="st7" d="M20,86.3"/>
<path class="st7" d="M9.3,91.5"/>
<path class="st5" d="M100.8,88.1"/>
<path class="st5" d="M111.6,93.5"/>
</svg>
