<?xml version="1.0" encoding="utf-8"?>
<!-- Generator: Adobe Illustrator 22.1.0, SVG Export Plug-In . SVG Version: 6.00 Build 0)  -->
<svg version="1.1" id="Слой_1" xmlns="http://www.w3.org/2000/svg" xmlns:xlink="http://www.w3.org/1999/xlink" x="0px" y="0px"
	 viewBox="0 0 100 100" style="enable-background:new 0 0 144 144;" xml:space="preserve">
<style type="text/css">
	.st0{fill:#575656;}
	.st1{fill:#F9DE59;}
	.st2{fill:#F98365;}
	.st3{fill:#CDDA95;}
	.st4{fill:#E8A628;}
	.st5{opacity:0.42;fill:none;stroke:#000000;stroke-width:0.5;stroke-miterlimit:10;}
	.st6{opacity:0.5;fill:none;stroke:#000000;stroke-width:0.5;stroke-miterlimit:10;}
	.st7{opacity:0.51;fill:none;stroke:#000000;stroke-width:0.5;stroke-miterlimit:10;}
</style>
<path class="st0" d="M63,123v-16.5c0-0.9,0.6-1.5,1.5-1.5c0.9,0,1.5,0.6,1.5,1.5V123h6v-19.5c0-0.9,0.6-1.5,1.5-1.5s1.5,0.6,1.5,1.5
	V123h6v-16.5c0-0.9,0.6-1.5,1.5-1.5s1.5,0.6,1.5,1.5V123h5.4c0.6-0.9,0.6-1.8,0.6-3.3V108c0-6.6-5.7-15.6-12.9-15.6h-7.5
	c-6.9,0-12.9,9.3-12.9,15.6v11.7c0,1.2,0.3,2.4,0.6,3.3H63L63,123z M120.3,79.2L120.3,79.2c0,0-3.9-1.2-7.2-1.2h-0.3
	c-3.3,0-8.7,0.9-8.7,0.9c-0.3,0-0.3,0-0.3-0.3c0-0.3,0-0.3,0.3-0.3s6-0.9,9.3-0.9s7.2,1.2,7.5,1.2s0.3,0.3,0.3,0.6
	C120.6,78.9,120.6,79.2,120.3,79.2z M119.4,81.6L119.4,81.6c0,0-4.2-1.2-7.8-1.2c-2.7,0-9,0.6-9.3,0.6c-0.3,0-0.3,0-0.3-0.3
	s0-0.3,0.3-0.3c0.3,0,6.6-0.6,9.3-0.6c3.9,0,7.8,1.2,7.8,1.2c0.3,0,0.3,0.3,0.3,0.6C119.7,81.3,119.7,81.6,119.4,81.6z M23.4,79.2
	c-0.3,0-0.3,0-0.3-0.3c0-0.3,0-0.3,0.3-0.6c2.4-0.6,7.2-1.5,9.9-1.5c2.4,0,10.5,0.6,10.8,0.6s0.3,0.3,0.3,0.3c0,0.3-0.3,0.3-0.3,0.3
	s-8.1-0.6-10.5-0.6C30.3,78,25.8,78.6,23.4,79.2L23.4,79.2z M24.6,83.7c0,0-0.3,0-0.3-0.3c0-0.3,0-0.3,0-0.6c0.3,0,4.2-2.4,8.7-3
	c3.9-0.6,12,0.3,12.6,0.3c0.3,0,0.3,0.3,0.3,0.3c0,0.3-0.3,0.3-0.3,0.3l0,0c0,0-8.4-0.9-12.3-0.3C28.8,81.3,24.6,83.7,24.6,83.7
	L24.6,83.7z"/>
<path class="st0" d="M42.6,70.5C42.6,57.3,56.4,45,73.5,45s30.9,12,30.9,25.5S94.5,93,73.5,93S42.6,83.7,42.6,70.5z"/>
<path class="st0" d="M85.8,48.9c0,0,5.1-6.9,14.4-6.9c3.6,3.6,1.2,14.4,0,17.4L85.8,48.9z M61.2,48.9c0,0-5.1-6.9-14.4-6.9
	c-3.6,3.6-1.2,14.4,0,17.4L61.2,48.9z M60.3,107.7c0,0-6.9,0-8.4,0c-3.6,0-6.9-1.5-8.4-4.5c-1.8-3.3-3.3-6.9-7.8-9.9
	c-0.9-0.6-0.3-1.2,1.2-1.2c1.5,0.3,4.2,0.6,6.3,3.3c2.1,2.7,4.5,6,8.4,6s8.1,0,10.5-2.7L60.3,107.7z"/>
<path class="st1" d="M113.4,28.6"/>
<g id="XMLID_2_">
	<g>
		<path class="st2" d="M131.8,66.7c1.2,13.8-2.4,26.8-9.2,37.5c-3.4-1.8-6.8-4.1-11-5.1c5.3-7.7,8.4-17.1,8.4-27.1
			c0-13.9-6-26.5-15.5-35.3c-0.1-0.1-0.1-0.2,0-0.2c0.3-0.3,0.6-0.5,0.9-0.8c2.5-1.8,4.8-3.9,6.9-6.1c0.4-0.3,0.7-0.6,1.1-1
			c-0.4,0.3-0.7,0.6-1.1,1c0.3-0.3,0.7-0.7,1.1-1C123.6,38.5,130.4,51.8,131.8,66.7z"/>
	</g>
	<g>
	</g>
</g>
<path class="st1" d="M105.3,35.8C105.3,35.8,105.3,35.8,105.3,35.8c0.1-0.1,0.3-0.3,0.4-0.4C105.6,35.5,105.5,35.6,105.3,35.8z"/>
<path class="st1" d="M106.6,34.6c0.5-0.4,1-0.9,1.5-1.3C107.6,33.7,107.1,34.1,106.6,34.6z"/>
<path class="st1" d="M105.3,35.8c-0.3,0.3-0.6,0.5-0.9,0.8c0,0,0,0,0,0C104.7,36.3,105,36,105.3,35.8
	C105.3,35.8,105.3,35.8,105.3,35.8z"/>
<path class="st1" d="M105.3,35.8c-0.4,0.3-0.7,0.5-1.1,0.8c0,0,0.1,0.1,0.1,0.1c0,0,0.1-0.1,0.1-0.1c0,0,0,0,0,0
	C104.7,36.3,105,36,105.3,35.8z"/>
<path class="st1" d="M109.9,31.7c-0.6,0.5-1.2,1.1-1.8,1.6c-0.5,0.4-1,0.9-1.5,1.3c-0.3,0.3-0.6,0.5-0.9,0.8
	c-0.1,0.1-0.3,0.3-0.4,0.4c2.5-1.8,4.8-3.9,6.9-6.1c-0.4,0.3-0.8,0.7-1.2,1C110.7,31.1,110.3,31.4,109.9,31.7z"/>
<path class="st1" d="M109.9,31.7c0.4-0.3,0.8-0.7,1.2-1C110.7,31.1,110.3,31.4,109.9,31.7z"/>
<path class="st1" d="M105.7,35.4c0.3-0.3,0.6-0.5,0.9-0.8c0.5-0.4,1-0.9,1.5-1.3c0.6-0.5,1.2-1.1,1.8-1.6c0.4-0.3,0.8-0.7,1.2-1
	c0.4-0.3,0.8-0.7,1.2-1c0.4-0.3,0.7-0.7,1-1c-9.7-9.2-22.4-15.3-36.5-16.4c-17.6-1.4-33.9,4.9-45.7,16c2.3,2.9,6,5.3,8.6,8.3
	c8.5-7.7,19.8-12.5,32.2-12.5c12.3,0,23.5,4.7,32,12.3c0.1,0.1,0.1,0.1,0.2,0.2c0.4-0.3,0.8-0.5,1.1-0.8
	C105.5,35.6,105.6,35.5,105.7,35.4z"/>
<g id="XMLID_1_">
	<g>
		<path class="st3" d="M31,97c7.7,12.6,21.1,21.4,36.5,22.9c18.2,1.7,34.6-7,44.1-20.7c4.1,1,7.6,3.3,11,5.1
			c-10.7,16.7-29.4,27.8-50.6,27.8c-22,0-41.3-12-51.7-29.7C23.9,100.6,27.4,98.8,31,97z"/>
		<path class="st4" d="M24.3,77.4c0.8,7.1,3.1,13.8,6.7,19.6c-3.6,1.8-7.1,3.6-10.7,5.4C15,93.5,12,83.1,12,72.1
			c0-17.3,7.4-32.9,19.2-43.9c2.3,2.9,6,5.3,8.7,8.3C28.9,46.4,22.5,61.2,24.3,77.4z"/>
	</g>
	<g>
	</g>
</g>
<path class="st5" d="M39.7,36.6"/>
<path class="st6" d="M113.4,28.6"/>
<path class="st6" d="M104.2,36.6"/>
<path class="st7" d="M31,97"/>
<path class="st7" d="M20.3,102.3"/>
<path class="st5" d="M111.8,98.9"/>
<path class="st5" d="M122.6,104.2"/>
</svg>
